<svg width="57" height="57" viewBox="0 0 57 57" fill="none" xmlns="http://www.w3.org/2000/svg">
<path d="M32.0625 19.4346V11.4404C32.0625 10.8751 32.2478 10.4104 32.6182 10.0463C32.9888 9.68208 33.4479 9.5 33.9958 9.5H45.5858C46.1352 9.5 46.5912 9.68208 46.9538 10.0463C47.3163 10.4104 47.4984 10.8751 47.5 11.4404V19.4346C47.5 20.0015 47.3148 20.4662 46.9443 20.8288C46.5738 21.1929 46.1146 21.375 45.5668 21.375H33.9767C33.4289 21.375 32.9729 21.1929 32.6087 20.8288C32.2446 20.4646 32.0625 19.9999 32.0625 19.4346ZM9.5 26.6V11.4C9.5 10.8617 9.68525 10.4104 10.0558 10.0463C10.4263 9.68208 10.8854 9.5 11.4333 9.5H23.0233C23.5727 9.5 24.0287 9.68208 24.3913 10.0463C24.7538 10.4104 24.9359 10.8617 24.9375 11.4V26.6C24.9375 27.1383 24.7522 27.5896 24.3817 27.9538C24.0112 28.3179 23.5521 28.5 23.0042 28.5H11.4143C10.8664 28.5 10.4104 28.3179 10.0463 27.9538C9.68208 27.5896 9.5 27.1383 9.5 26.6ZM32.0625 45.6V30.4C32.0625 29.8617 32.2478 29.4104 32.6182 29.0462C32.9888 28.6821 33.4479 28.5 33.9958 28.5H45.5858C46.1352 28.5 46.5912 28.6821 46.9538 29.0462C47.3163 29.4104 47.4984 29.8617 47.5 30.4V45.6C47.5 46.1383 47.3148 46.5896 46.9443 46.9538C46.5738 47.3179 46.1146 47.5 45.5668 47.5H33.9767C33.4289 47.5 32.9729 47.3179 32.6087 46.9538C32.2446 46.5896 32.0625 46.1383 32.0625 45.6ZM9.5 45.5596V37.5654C9.5 37.0001 9.68525 36.5354 10.0558 36.1712C10.4263 35.8071 10.8854 35.625 11.4333 35.625H23.0233C23.5727 35.625 24.0287 35.8071 24.3913 36.1712C24.7538 36.5354 24.9359 37.0001 24.9375 37.5654V45.5596C24.9375 46.1265 24.7522 46.5912 24.3817 46.9538C24.0112 47.3179 23.5521 47.5 23.0042 47.5H11.4143C10.8664 47.5 10.4104 47.3179 10.0463 46.9538C9.68208 46.5896 9.5 46.1249 9.5 45.5596ZM11.875 26.125H22.5625V11.875H11.875V26.125ZM34.4375 45.125H45.125V30.875H34.4375V45.125ZM34.4375 19H45.125V11.875H34.4375V19ZM11.875 45.125H22.5625V38H11.875V45.125Z" fill="#03045E"/>
</svg>
