<svg width="59" height="59" viewBox="0 0 59 59" fill="none" xmlns="http://www.w3.org/2000/svg">
<path d="M14.75 51.625C13.3635 51.625 12.1975 51.1522 11.2518 50.2065C10.3062 49.2609 9.83337 48.1022 9.83337 46.7304V41.7916H17.2084V8.32143L20.3305 10.4946L23.5435 8.31897L26.759 10.4946L29.972 8.31897L33.1875 10.4946L36.403 8.32143L39.6185 10.4946L42.8316 8.32143L46.0471 10.4946L49.1667 8.31897V46.7083C49.1667 48.0948 48.6939 49.2609 47.7483 50.2065C46.8026 51.1522 45.6365 51.625 44.25 51.625H14.75ZM44.25 49.1666C44.9466 49.1666 45.5308 48.9306 46.0028 48.4586C46.4748 47.9866 46.71 47.4032 46.7084 46.7083V12.2916H19.6667V41.7916H41.7917V46.7083C41.7917 47.4048 42.0277 47.9891 42.4997 48.4611C42.9717 48.9331 43.5552 49.1683 44.25 49.1666ZM23.0715 20.8958V18.4375H36.2138V20.8958H23.0715ZM23.0715 28.2708V25.8125H36.2138V28.2708H23.0715ZM41.509 21.5596C41.0009 21.5596 40.5584 21.3711 40.1815 20.9941C39.8046 20.6172 39.6161 20.1747 39.6161 19.6666C39.6161 19.1586 39.8046 18.7161 40.1815 18.3391C40.5584 17.9622 41.0009 17.7737 41.509 17.7737C42.0171 17.7737 42.4587 17.9622 42.834 18.3391C43.2093 18.7161 43.3978 19.1586 43.3995 19.6666C43.4011 20.1747 43.2126 20.6172 42.834 20.9941C42.4555 21.3711 42.0154 21.5596 41.509 21.5596ZM41.5065 28.9346C41.0001 28.9346 40.5584 28.7461 40.1815 28.3691C39.8046 27.9922 39.6161 27.5497 39.6161 27.0416C39.6161 26.5336 39.8046 26.0911 40.1815 25.7141C40.5584 25.3372 41.0009 25.1487 41.509 25.1487C42.0171 25.1487 42.4587 25.3372 42.834 25.7141C43.2093 26.0911 43.3978 26.5336 43.3995 27.0416C43.4011 27.5497 43.2126 27.9922 42.834 28.3691C42.4555 28.7461 42.013 28.9346 41.5065 28.9346ZM14.75 49.1666H39.3334V44.25H12.2917V46.7083C12.2917 47.4048 12.5277 47.9891 12.9997 48.4611C13.4717 48.9331 14.0552 49.1683 14.75 49.1666Z" fill="#03045E"/>
</svg>
