<svg width="126" height="126" viewBox="0 0 126 126" fill="none" xmlns="http://www.w3.org/2000/svg">
<path opacity="0.5" d="M63 42V63L76.125 76.125" stroke="#03045E" stroke-linecap="round" stroke-linejoin="round"/>
<path d="M22.7745 36.0727L18.837 36.0885C18.8411 37.1264 19.2549 38.1207 19.9884 38.8551C20.7218 39.5896 21.7156 40.0047 22.7535 40.0102L22.7745 36.0727ZM36.12 40.0732C36.6371 40.0756 37.1496 39.9762 37.6282 39.7805C38.1069 39.5849 38.5423 39.2969 38.9096 38.9329C39.2769 38.569 39.569 38.1363 39.7691 37.6595C39.9692 37.1827 40.0735 36.6712 40.0759 36.1541C40.0783 35.637 39.9788 35.1245 39.7832 34.6459C39.5875 34.1672 39.2995 33.7318 38.9356 33.3645C38.5717 32.9971 38.139 32.7051 37.6622 32.505C37.1854 32.3049 36.6738 32.2006 36.1567 32.1982L36.12 40.0732ZM26.6437 22.6852C26.641 22.1681 26.5364 21.6567 26.336 21.18C26.1356 20.7033 25.8432 20.2708 25.4756 19.9071C25.108 19.5435 24.6724 19.2557 24.1937 19.0604C23.7149 18.8651 23.2023 18.766 22.6852 18.7687C22.1682 18.7715 21.6567 18.8761 21.18 19.0765C20.7034 19.2769 20.2708 19.5693 19.9072 19.9368C19.5435 20.3044 19.2558 20.74 19.0604 21.2188C18.8651 21.6976 18.766 22.2101 18.7687 22.7272L26.6437 22.6852ZM20.0917 56.6212C20.1672 56.1066 20.1399 55.5821 20.0115 55.0781C19.8832 54.5741 19.6562 54.1005 19.3438 53.6847C19.0313 53.2689 18.6396 52.9191 18.1912 52.6556C17.7428 52.392 17.2467 52.2199 16.7314 52.1491C16.2161 52.0784 15.6919 52.1105 15.1891 52.2434C14.6863 52.3764 14.2148 52.6077 13.8019 52.9239C13.389 53.2402 13.0428 53.6351 12.7833 54.0858C12.5238 54.5366 12.3563 55.0343 12.2902 55.5502L20.0917 56.6212ZM99.0255 26.9745C78.9705 6.91947 46.5622 6.70947 26.6385 26.6385L32.2035 32.2035C49.0035 15.4087 76.4242 15.5085 93.4605 32.5395L99.0255 26.9745ZM26.9745 99.0255C47.0295 119.08 79.4378 119.29 99.3615 99.3615L93.7965 93.7965C76.9965 110.591 49.5757 110.491 32.5395 93.4605L26.9745 99.0255ZM99.3615 99.3615C119.285 79.4377 119.08 47.0295 99.0255 26.9745L93.4605 32.5395C110.492 49.5757 110.591 76.9965 93.7965 93.7965L99.3615 99.3615ZM26.6385 26.6385L19.9867 33.285L25.557 38.85L32.2035 32.2035L26.6385 26.6385ZM22.7535 40.0102L36.12 40.0732L36.1567 32.1982L22.7955 32.1352L22.7535 40.0102ZM26.712 36.0517L26.6437 22.6852L18.7687 22.7272L18.837 36.0885L26.712 36.0517ZM12.285 55.545C11.2055 63.4335 11.9697 71.465 14.5176 79.0084C17.0655 86.5518 21.3276 93.4018 26.9692 99.0202L32.5342 93.4552C27.752 88.6954 24.1389 82.8913 21.979 76.4991C19.8192 70.1069 19.1713 63.3009 20.0865 56.616L12.285 55.545Z" fill="#03045E"/>
</svg>
