<svg width="137" height="137" viewBox="0 0 137 137" fill="none" xmlns="http://www.w3.org/2000/svg">
<path d="M114.167 62.7916C112.771 52.7462 108.111 43.4384 100.904 36.3021C93.6978 29.1657 84.345 24.5967 74.2864 23.2988C64.2278 22.0009 54.0216 24.0462 45.2397 29.1196C36.4579 34.1929 29.5878 42.0129 25.6875 51.375M22.8334 28.5416V51.375H45.6667M22.8334 74.2083C24.2294 84.2537 28.8895 93.5615 36.0959 100.698C43.3023 107.834 52.6551 112.403 62.7137 113.701C72.7722 114.999 82.9785 112.954 91.7604 107.88C100.542 102.807 107.412 94.987 111.313 85.625M114.167 108.458V85.625H91.3334" stroke="#03045E" stroke-width="6" stroke-linecap="round" stroke-linejoin="round"/>
</svg>
